<?xml version="1.0" encoding="utf-8"?><!DOCTYPE svg PUBLIC "-//W3C//DTD SVG 1.1//EN" "http://www.w3.org/Graphics/SVG/1.1/DTD/svg11.dtd"><svg version="1.1" xmlns="http://www.w3.org/2000/svg" xmlns:xlink="http://www.w3.org/1999/xlink" width="20" height="20" viewBox="0 0 20 20" data-tags="calendar"><g fill="#444" transform="scale(0.01953125 0.01953125)"><path d="M51.2 204.8c0-56.32 46.080-102.4 102.4-102.4h716.8c56.554 0 102.4 45.846 102.4 102.4v0 716.8c0 56.554-45.846 102.4-102.4 102.4v0h-716.8c-56.554 0-102.4-45.846-102.4-102.4v0-716.8zM153.6 307.2v614.4h716.8v-614.4h-716.8zM256 0h102.4v102.4h-102.4v-102.4zM665.6 0h102.4v102.4h-102.4v-102.4zM256 460.8h102.4v102.4h-102.4v-102.4zM256 665.6h102.4v102.4h-102.4v-102.4zM460.8 460.8h102.4v102.4h-102.4v-102.4zM460.8 665.6h102.4v102.4h-102.4v-102.4zM665.6 460.8h102.4v102.4h-102.4v-102.4zM665.6 665.6h102.4v102.4h-102.4v-102.4z" /></g></svg>